<svg data-v-0dd9719b="" version="1.0" xmlns="http://www.w3.org/2000/svg" xmlns:xlink="http://www.w3.org/1999/xlink" width="100%" height="100%" viewBox="0 0 340.000000 250.000000" preserveAspectRatio="xMidYMid meet" color-interpolation-filters="sRGB" style="margin: auto;"> <rect data-v-0dd9719b="" x="0" y="0" width="100%" height="100%" fill="#ffffff" fill-opacity="1" class="background"></rect> <rect data-v-0dd9719b="" x="0" y="0" width="100%" height="100%" fill="url(#watermark)" fill-opacity="1" class="watermarklayer"></rect> <g data-v-0dd9719b="" fill="#020f40" class="icon-text-wrapper icon-svg-group iconsvg" transform="translate(48.230003356933594,95)"><g class="iconsvg-imagesvg" transform="translate(0,0)"><g><rect fill="#020f40" fill-opacity="0" stroke-width="2" x="0" y="0" width="60" height="60" class="image-rect"></rect> <svg filter="url(#colors4069442672)" x="0" y="0" width="60" height="60" filtersec="colorsf9347933151" class="image-svg-svg primary" style="overflow: visible;"><svg xmlns="http://www.w3.org/2000/svg" viewBox="0.7999999999999998 0.7999999999999998 97.89999 97.9"><path d="M49.8 96.7l-47-46.9 47-47 46.9 46.9-46.9 47zm7.8-86.1L18.5 49.8l15.6 15.6-7.8 7.8m15.6 15.7L81 49.8 65.4 34.1l7.8-7.8m7.8 7.8L49.8 65.4 42 57.6 57.6 42l-7.8-7.8-31.3 31.2" fill="none" stroke="#333" stroke-width="4" stroke-miterlimit="10"></path></svg></svg> <defs><filter id="colors4069442672"><feColorMatrix type="matrix" values="0 0 0 0 0.0078125  0 0 0 0 0.05859375  0 0 0 0 0.25  0 0 0 1 0" class="icon-fecolormatrix"></feColorMatrix></filter> <filter id="colorsf9347933151"><feColorMatrix type="matrix" values="0 0 0 0 0.99609375  0 0 0 0 0.99609375  0 0 0 0 0.99609375  0 0 0 1 0" class="icon-fecolormatrix"></feColorMatrix></filter> <filter id="colorsb3298358708"><feColorMatrix type="matrix" values="0 0 0 0 0  0 0 0 0 0  0 0 0 0 0  0 0 0 1 0" class="icon-fecolormatrix"></feColorMatrix></filter></defs></g></g> <g transform="translate(67,4.534999847412109)"><g data-gra="path-name" fill-rule="" class="tp-name iconsvg-namesvg"><g transform="scale(1)"><g><path d="M3.41 0L17.91 0C29.11 0 32.15-3.97 32.15-10.42 32.15-15.17 29.72-17.49 26.01-18.68L26.01-18.89C29.93-19.97 31.22-22.35 31.22-26.06 31.22-32.51 28.07-35.81 16.77-35.81L3.41-35.81ZM13.68-21.73L13.68-27.76 15.58-27.76C19.46-27.76 21-27.35 21-24.82 21-22.14 19.46-21.73 15.58-21.73ZM13.68-8.1L13.68-14.6 16.36-14.6C20.59-14.6 21.78-13.73 21.78-11.25 21.78-8.72 20.54-8.1 16.36-8.1ZM49.7-28.33C47.68-28.33 44.69-28.23 42.57-27.87L42.57-19.66C44.38-19.97 46.29-20.13 48.3-20.13 52.38-20.13 53.41-19.71 53.57-16.88L47.84-16.88C39.74-16.88 36.07-14.5 36.07-8.1 36.07-2.12 39.74 0.52 45.57 0.52 50.47 0.52 52.84-1.19 53.67-2.58L54.44 0 63.32 0 63.32-18.94C63.32-25.44 59.45-28.33 49.7-28.33ZM48.66-6.76C46.65-6.76 45.57-7.12 45.57-8.57 45.57-10.22 46.55-10.68 49.64-10.68L53.57-10.68 53.57-8.51C52.79-7.53 51.09-6.76 48.66-6.76ZM103.78-28.38C99.19-28.38 96.45-27.2 95.06-24.98 93.66-27.4 91.24-28.38 87.26-28.38 82.78-28.38 80.76-26.99 79.52-25.03L79.52-27.87 69.72-27.87 69.72 0 79.52 0 79.52-18.11C79.78-19.61 80.45-20.64 82.98-20.64 85.2-20.64 86.44-20.07 86.44-16.62L86.44 0 96.24 0 96.24-17.44C96.61-19.46 97.38-20.64 100.06-20.64 102.39-20.64 103.47-20.07 103.47-16.62L103.47 0 113.27 0 113.27-17.91C113.27-25.96 109.87-28.38 103.78-28.38ZM123.9-30.76C128.45-30.76 129.22-31.22 129.22-35.76 129.22-40.25 128.45-40.61 123.9-40.61 119.42-40.61 118.59-40.25 118.59-35.76 118.59-31.22 119.42-30.76 123.9-30.76ZM119 0L128.81 0 128.81-27.87 119-27.87ZM144.13 0.31C145.32 0.31 146.46 0.21 147.59 0L147.59-7.38C147.02-7.22 146.87-7.28 146.51-7.28 144.91-7.28 144.39-7.95 144.39-10.27L144.39-39.22 134.59-39.22 134.59-7.95C134.59-2.32 136.44 0.31 144.13 0.31ZM152.18 10.32C162.97 10.32 166.58 8.41 171.12-3.82L179.95-27.87 169.21-27.87 164.47-10.48 164.16-10.48 159-27.87 148.06-27.87 158.69-0.36C158.27 1.08 156.73 1.81 152.18 1.81Z" transform="translate(-3.4100000858306885, 40.61000061035156)"></path></g> <!----> <!----> <!----> <!----> <!----> <!----> <!----></g></g> <!----></g></g></svg>